<svg aria-hidden="true" style="position:absolute;width:0;height:0;overflow:hidden" xmlns="http://www.w3.org/2000/svg">
  <defs>
    <symbol id="icon-dish" viewBox="0 0 35 32">
      <path d="M8.201 19.713a.5.5 0 1 0 .823.567l.01-.015a9.389 9.389 0 0 1 7.834-4.213.5.5 0 0 0 0-1 10.383 10.383 0 0 0-8.667 4.66z"/>
      <path d="M32.971 26.054h-3v-.604a11.794 11.794 0 0 0-3.653-8.577.5.5 0 1 0-.693.72 10.802 10.802 0 0 1 3.346 7.857v.604h-23v-.604c.007-6.015 4.881-10.889 10.896-10.896h1.208c.929-.001 1.854.117 2.753.35a.5.5 0 1 0 .249-.967 11.936 11.936 0 0 0-2.107-.346v-1.537a.5.5 0 0 0-.5-.5h-2a.5.5 0 0 0-.5.5v1.537a11.91 11.91 0 0 0-11 11.859v.604h-3a.5.5 0 0 0 0 1h31a.5.5 0 0 0 0-1zm-16-13.5h1v1h-1v-1z"/>
      <path d="M22.638 11.175c.465.415.833.744.833 1.413s-.367.997-.833 1.415a2.735 2.735 0 0 0-1.167 2.157.5.5 0 0 0 1 0c0-.669.367-.997.833-1.413a2.736 2.736 0 0 0 1.167-2.159 2.735 2.735 0 0 0-1.167-2.159c-.465-.416-.833-.744-.833-1.412s.367-.997.833-1.412a2.734 2.734 0 0 0 1.167-2.158.5.5 0 0 0-1 0c0 .668-.367.996-.833 1.412a2.735 2.735 0 0 0-1.167 2.159 2.736 2.736 0 0 0 1.167 2.159zM25.638 11.175c.465.415.833.744.833 1.413s-.368 1-.833 1.413a2.735 2.735 0 0 0-1.167 2.159.5.5 0 0 0 1 0c0-.669.367-.997.833-1.413a2.736 2.736 0 0 0 1.167-2.159 2.735 2.735 0 0 0-1.167-2.159c-.465-.416-.833-.744-.833-1.412s.367-.997.833-1.412a2.734 2.734 0 0 0 1.167-2.158.5.5 0 0 0-1 0c0 .668-.368.996-.833 1.412a2.735 2.735 0 0 0-1.167 2.159 2.736 2.736 0 0 0 1.167 2.159zM28.638 11.175c.465.415.833.744.833 1.413s-.367 1-.833 1.413a2.735 2.735 0 0 0-1.167 2.159.5.5 0 0 0 1 0c0-.669.368-.997.833-1.413a2.736 2.736 0 0 0 1.167-2.159 2.735 2.735 0 0 0-1.167-2.159c-.465-.416-.833-.744-.833-1.412s.368-.997.833-1.412a2.734 2.734 0 0 0 1.167-2.158.5.5 0 0 0-1 0c0 .668-.367.996-.833 1.412a2.735 2.735 0 0 0-1.167 2.159 2.736 2.736 0 0 0 1.167 2.159z"/>
    </symbol>
    <symbol id="icon-phone" viewBox="0 0 32 32">
      <path d="M25.29 19.823c-.655-.682-1.445-1.047-2.283-1.047-.831 0-1.628.358-2.31 1.04l-2.134 2.127c-.176-.094-.351-.182-.52-.27-.243-.122-.473-.236-.669-.358-1.999-1.27-3.816-2.924-5.558-5.065-.844-1.067-1.412-1.965-1.824-2.877.554-.507 1.067-1.033 1.567-1.54.189-.189.378-.385.567-.574 1.418-1.418 1.418-3.255 0-4.674l-1.844-1.844a29.275 29.275 0 0 1-.628-.642 31.411 31.411 0 0 0-1.27-1.256c-.655-.648-1.439-.993-2.263-.993s-1.621.344-2.296.993l-.014.014-2.296 2.317A4.937 4.937 0 0 0 .049 8.315c-.162 1.972.419 3.809.865 5.011 1.094 2.951 2.729 5.687 5.167 8.618 2.958 3.532 6.517 6.322 10.583 8.287 1.553.736 3.627 1.607 5.943 1.756.142.007.29.014.425.014 1.56 0 2.87-.561 3.897-1.675.007-.014.02-.02.027-.034.351-.426.756-.811 1.182-1.223.29-.277.588-.567.878-.871.669-.696 1.02-1.506 1.02-2.337 0-.837-.358-1.641-1.04-2.317l-3.708-3.721zm2.418 7.112c-.007 0-.007.007 0 0-.263.284-.534.54-.824.824-.439.419-.885.858-1.303 1.351-.682.729-1.486 1.074-2.539 1.074-.101 0-.209 0-.311-.007-2.006-.128-3.87-.912-5.268-1.58-3.823-1.851-7.179-4.478-9.969-7.807-2.303-2.776-3.843-5.342-4.863-8.098-.628-1.682-.858-2.992-.756-4.228.068-.79.371-1.445.932-2.006L5.11 4.155c.331-.311.682-.48 1.027-.48.426 0 .77.257.986.473l.02.02c.412.385.804.783 1.216 1.209.209.216.425.432.642.655l1.844 1.844c.716.716.716 1.378 0 2.094-.196.196-.385.392-.581.581a35.386 35.386 0 0 1-1.695 1.648c-.014.014-.027.02-.034.034-.581.581-.473 1.148-.351 1.533l.02.061c.48 1.162 1.155 2.256 2.181 3.559l.007.007c1.864 2.296 3.829 4.086 5.997 5.457.277.176.561.317.831.452.243.122.473.236.669.358.027.014.054.034.081.047.23.115.446.169.669.169.561 0 .912-.351 1.026-.466l2.31-2.31c.23-.23.594-.506 1.02-.506.419 0 .763.263.973.493l.014.014 3.721 3.721c.696.689.696 1.398.007 2.114zM17.294 7.612c1.77.297 3.377 1.135 4.66 2.418s2.114 2.891 2.418 4.66a.905.905 0 0 0 .898.756c.054 0 .101-.007.155-.014a.913.913 0 0 0 .75-1.054c-.365-2.141-1.378-4.093-2.925-5.639s-3.498-2.56-5.639-2.924c-.5-.081-.966.25-1.054.743s.236.973.736 1.054zM31.963 14.116c-.601-3.525-2.263-6.734-4.815-9.287S21.387.615 17.861.014a.909.909 0 0 0-1.047.743c-.081.5.25.966.75 1.054 3.147.534 6.018 2.026 8.301 4.302a15.296 15.296 0 0 1 4.302 8.3.905.905 0 0 0 .898.756c.054 0 .101-.007.155-.014a.895.895 0 0 0 .743-1.04z"/>
    </symbol>
    <symbol id="logo" viewBox="0 0 47 32">
      <path stroke-width="1.412" d="M.998 15.991 15.991.998l14.993 14.993-14.993 14.993z"/>
      <path stroke-width="1.412" d="M16.075 15.991 31.068.998l14.993 14.993-14.993 14.993z"/>
    </symbol>
  </defs>
</svg>
